# xmcd
#
# Track frame offsets:
#	150
#	11862
#	22389
#	33939
#	47109
#	63073
#	76001
#	90894
#	103984
#	116885
#	130733
#	142944
#	172037
#	183510
#	194093
#	206517
#	216369
#	231196
#	244692
#	257989
#
# Disc length: 3632 seconds
#
# Revision: 1
# Processed by: cddbd v1.5.2PL0 Copyright (c) Steve Scherf et al.
# Submitted via: audiograbber 1.83.01
#
DISCID=220e2e14
DTITLE=Various Artist - Soul Hits
DYEAR=1900
DGENRE=Soul
TTITLE0=Sam and Dave - Hold on I'm Coming
TTITLE1=Arthur Conley - Sweet Soul Music
TTITLE2=Wilson Picket - In the Midnight Hour
TTITLE3=Ben E King - Stand By Me
TTITLE4=Aretha Franklin - I Say a Little Prayer
TTITLE5=Dionne Warwick - Walk On By
TTITLE6=Otis Reading - Try A Little Tenderness
TTITLE7=Carla Thomas - B-A-B-Y
TTITLE8=Percy Sledge - When a Man Loves a Woman
TTITLE9=Eddie Floyd - Knock on Wood
TTITLE10=The Drifters - Under the Board Walk
TTITLE11=Ray Charles - What'd I Say (Parts 1 and 2)
TTITLE12=Rufus Thomas - Walking The Dog
TTITLE13=The Bar-Kays - Soul Finger
TTITLE14=Solomon Burke - Everybody needs Somebody
TTITLE15=Pattie LaBelle and the Bluebells - A Groovy Kind of Love
TTITLE16=Dee Dee Warwick  - Suspicious Minds
TTITLE17=Don Covey - Track See Saw
TTITLE18=King Curtis - Memphis Soul Stew
TTITLE19=Beginning of the End - Funky Nassau (part 1)
EXTD=
EXTT0=
EXTT1=
EXTT2=
EXTT3=
EXTT4=
EXTT5=
EXTT6=
EXTT7=
EXTT8=
EXTT9=
EXTT10=
EXTT11=
EXTT12=
EXTT13=
EXTT14=
EXTT15=
EXTT16=
EXTT17=
EXTT18=
EXTT19=
PLAYORDER=
